<svg xmlns="http://www.w3.org/2000/svg" width="10000" height="7200.01" viewBox="0 0 10000 7200.01">
<text x="500" y="500" fill="#222" font-size="200" font-family="monospace">EG</text>
<polygon points="900,920 1325,920 1325,500 500,520" fill="none" stroke="#2979ff" stroke-width="20" />
<polygon points="1325,920 4535,920 4535,500 1325,500" fill="none" stroke="#2979ff" stroke-width="20" />
<polygon points="4535,920 9080,920 9500,500 4535,500" fill="none" stroke="#2979ff" stroke-width="20" />
<polygon points="9080,920 9080,6300.01 9500,6700.01 9500,500" fill="none" stroke="#2979ff" stroke-width="20" />
<polygon points="9080,6300.01 900,6300.01 500,6700.01 9500,6700.01" fill="none" stroke="#2979ff" stroke-width="20" />
<polygon points="900,6300.01 900,920 500,520 500,6700.01" fill="none" stroke="#2979ff" stroke-width="20" />
<polygon points="500,6700.01 9500,6700.01 9500,500 4535,500 1325,500 500,520" fill="rgba(0,200,83,0.18)" stroke="#2979ff" stroke-width="20" />
<polygon points="500,6700.01 9500,6700.01 9500,500 4535,500 1325,500 500,520" fill="none" stroke="#ff1744" stroke-width="40" />
<line x1="9500" y1="5600.01" x2="9500" y2="3770.01" stroke="#8e24aa" stroke-width="40" stroke-linecap="round" />
<line x1="9500" y1="3040" x2="9500" y2="2210" stroke="#8e24aa" stroke-width="40" stroke-linecap="round" />
<line x1="4045" y1="500" x2="1445" y2="500" stroke="#8e24aa" stroke-width="40" stroke-linecap="round" />
</svg>