<svg xmlns="http://www.w3.org/2000/svg" width="10000" height="7200" viewBox="0 0 10000 7200">
<text x="500" y="500" fill="#222" font-size="200" font-family="monospace">OG</text>
<polygon points="920,920 4535,920 4535,500 500,500" fill="none" stroke="#2979ff" stroke-width="20" />
<polygon points="4535,920 9080,920 9500,500 4535,500" fill="none" stroke="#2979ff" stroke-width="20" />
<polygon points="9080,920 9080,6280 9500,6700 9500,500" fill="none" stroke="#2979ff" stroke-width="20" />
<polygon points="9080,6280 920,6280 500,6700 9500,6700" fill="none" stroke="#2979ff" stroke-width="20" />
<polygon points="920,6280 920,920 500,500 500,6700" fill="none" stroke="#2979ff" stroke-width="20" />
<polygon points="9500,6700 9500,500 4535,500 500,500 500,6700" fill="rgba(0,200,83,0.18)" stroke="#2979ff" stroke-width="20" />
<polygon points="4680,1920 4680,920 9080,920 9080,1920" fill="rgba(255,193,7,0.25)" stroke="#ff9100" stroke-width="20" />
<polygon points="9500,6700 9500,500 4535,500 500,500 500,6700" fill="none" stroke="#ff1744" stroke-width="40" />
<polygon points="4680,1920 4680,920 9080,920 9080,1920" fill="rgba(255,193,7,0.25)" stroke="#ff9100" stroke-width="20" />
<line x1="9500" y1="2085" x2="9500" y2="1445" stroke="#8e24aa" stroke-width="40" stroke-linecap="round" />
<line x1="9500" y1="4365" x2="9500" y2="3035" stroke="#8e24aa" stroke-width="40" stroke-linecap="round" />
<line x1="9500" y1="5755" x2="9500" y2="4425" stroke="#8e24aa" stroke-width="40" stroke-linecap="round" />
<line x1="3605" y1="500" x2="1445" y2="500" stroke="#8e24aa" stroke-width="40" stroke-linecap="round" />
<line x1="500" y1="2060" x2="500" y2="4980" stroke="#8e24aa" stroke-width="40" stroke-linecap="round" />
<line x1="7235" y1="6700" x2="8195" y2="6700" stroke="#8e24aa" stroke-width="40" stroke-linecap="round" />
<line x1="4431" y1="6700" x2="5391" y2="6700" stroke="#8e24aa" stroke-width="40" stroke-linecap="round" />
<line x1="1805" y1="6700" x2="2765" y2="6700" stroke="#8e24aa" stroke-width="40" stroke-linecap="round" />
</svg>