<svg xmlns="http://www.w3.org/2000/svg" width="10000" height="7200.01" viewBox="0 0 10000 7200.01">
<text x="500" y="500" fill="#222" font-size="200" font-family="monospace">EG</text>
<polygon points="900,920 1325,920 1325,500 500,520" fill="none" stroke="#2979ff" stroke-width="20" />
<polygon points="1325,920 4535,920 4535,500 1325,500" fill="none" stroke="#2979ff" stroke-width="20" />
<polygon points="1445,920 4045,920 4045,500 1445,500" fill="#FFFFFF55" stroke="white" stroke-width="20" />
<polygon points="4535,920 9080,920 9500,500 4535,500" fill="none" stroke="#2979ff" stroke-width="20" />
<polygon points="9080,920 9080,6300.01 9500,6700.01 9500,500" fill="none" stroke="#2979ff" stroke-width="20" />
<polygon points="9080,3770.01 9080,5600.01 9500,5600.01 9500,3770.01" fill="#FFFFFF55" stroke="white" stroke-width="20" />
<polygon points="9080,2210 9080,3040 9500,3040 9500,2210" fill="#FFFFFF55" stroke="white" stroke-width="20" />
<polygon points="9080,6300.01 900,6300.01 500,6700.01 9500,6700.01" fill="none" stroke="#2979ff" stroke-width="20" />
<polygon points="900,6300.01 900,920 500,520 500,6700.01" fill="none" stroke="#2979ff" stroke-width="20" />
<polygon points="500,6700.01 9500,6700.01 9500,500 4535,500 1325,500 500,520" fill="rgba(0,200,83,0.18)" stroke="#2979ff" stroke-width="20" />
<polygon points="899.81,6302.92 897.21,930.52 1332.18,920.06 9080.2,917.23 9082.8,6300.2" fill="none" stroke="#ff1744" stroke-width="40" />
<line x1="1445" y1="920.02" x2="4045.15" y2="919.07" stroke="#8e24aa" stroke-width="40" stroke-linecap="round" />
<line x1="9081.58" y1="3770.01" x2="9082.46" y2="5600.21" stroke="#8e24aa" stroke-width="40" stroke-linecap="round" />
<line x1="9080.83" y1="2210" x2="9081.23" y2="3040.2" stroke="#8e24aa" stroke-width="40" stroke-linecap="round" />
</svg>