<svg xmlns="http://www.w3.org/2000/svg" width="10000" height="7200" viewBox="0 0 10000 7200">
<text x="500" y="500" fill="#222" font-size="200" font-family="monospace">OG</text>
<polygon points="920,920 4535,920 4535,500 500,500" fill="none" stroke="#2979ff" stroke-width="20" />
<polygon points="1445,920 3605,920 3605,500 1445,500" fill="#FFFFFF55" stroke="white" stroke-width="20" />
<polygon points="4535,920 9080,920 9500,500 4535,500" fill="none" stroke="#2979ff" stroke-width="20" />
<polygon points="9080,920 9080,6280 9500,6700 9500,500" fill="none" stroke="#2979ff" stroke-width="20" />
<polygon points="9080,1445 9080,2085 9500,2085 9500,1445" fill="#FFFFFF55" stroke="white" stroke-width="20" />
<polygon points="9080,3035 9080,4365 9500,4365 9500,3035" fill="#FFFFFF55" stroke="white" stroke-width="20" />
<polygon points="9080,4425 9080,5755 9500,5755 9500,4425" fill="#FFFFFF55" stroke="white" stroke-width="20" />
<polygon points="9080,6280 920,6280 500,6700 9500,6700" fill="none" stroke="#2979ff" stroke-width="20" />
<polygon points="8195,6280 7235,6280 7235,6700 8195,6700" fill="#FFFFFF55" stroke="white" stroke-width="20" />
<polygon points="5391,6280 4431,6280 4431,6700 5391,6700" fill="#FFFFFF55" stroke="white" stroke-width="20" />
<polygon points="2765,6280 1805,6280 1805,6700 2765,6700" fill="#FFFFFF55" stroke="white" stroke-width="20" />
<polygon points="920,6280 920,920 500,500 500,6700" fill="none" stroke="#2979ff" stroke-width="20" />
<polygon points="920,4980 920,2060 500,2060 500,4980" fill="#FFFFFF55" stroke="white" stroke-width="20" />
<polygon points="9500,6700 9500,500 4535,500 500,500 500,6700" fill="rgba(0,200,83,0.18)" stroke="#2979ff" stroke-width="20" />
<polygon points="4680,1920 4680,920 9080,920 9080,1920" fill="rgba(255,193,7,0.25)" stroke="#ff9100" stroke-width="20" />
<polygon points="920,6282.85 920,917 9080.2,917 9082.79,6280.14" fill="none" stroke="#ff1744" stroke-width="40" />
<polygon points="4680,1920 4680,920 9080,920 9080,1920" fill="rgba(255,193,7,0.25)" stroke="#ff9100" stroke-width="20" />
<line x1="920" y1="4980" x2="920" y2="2060" stroke="#8e24aa" stroke-width="40" stroke-linecap="round" />
<line x1="1445" y1="917" x2="3605" y2="917" stroke="#8e24aa" stroke-width="40" stroke-linecap="round" />
<line x1="9080.46" y1="1445" x2="9080.77" y2="2085.2" stroke="#8e24aa" stroke-width="40" stroke-linecap="round" />
<line x1="9081.22" y1="3035" x2="9081.86" y2="4365.2" stroke="#8e24aa" stroke-width="40" stroke-linecap="round" />
<line x1="9081.89" y1="4425" x2="9082.53" y2="5755.2" stroke="#8e24aa" stroke-width="40" stroke-linecap="round" />
<line x1="8195" y1="6280.43" x2="7234.86" y2="6280.75" stroke="#8e24aa" stroke-width="40" stroke-linecap="round" />
<line x1="5391" y1="6281.37" x2="4430.86" y2="6281.68" stroke="#8e24aa" stroke-width="40" stroke-linecap="round" />
<line x1="2765" y1="6282.24" x2="1804.86" y2="6282.56" stroke="#8e24aa" stroke-width="40" stroke-linecap="round" />
</svg>