<svg xmlns="http://www.w3.org/2000/svg" width="14000" height="12000" viewBox="0 0 14000 12000">
<text x="500" y="500" fill="#222" font-size="200" font-family="monospace">Dachgeschoss</text>
<polygon points="1185,6500 1185,6499.4 1185,6497.59 1185,6494.59 1185,6490.39 1185,6485.02 1185,6478.47 1185,6470.77 1185,6461.94 1185,6451.99 1185,6440.96 1185,6428.86 1185,6415.73 1185,6401.6 1185,6386.51 1185,6370.48 1185,6353.55 1185,6335.78 1185,6317.2 1185,6297.85 1185,6277.79 1185,6257.05 1185,6235.7 1185,6213.78 1185,6191.34 1185,6168.44 1185,6145.14 1185,6121.49 1185,6097.54 1185,6073.37 1185,6049.01 1185,6024.53 1185,6000 1185,5975.47 1185,5950.99 1185,5926.63 1185,5902.46 1185,5878.51 1185,5854.86 1185,5831.56 1185,5808.66 1185,5786.22 1185,5764.3 1185,5742.95 1185,5722.21 1185,5702.15 1185,5682.8 1185,5664.22 1185,5646.45 1185,5629.52 1185,5613.49 1185,5598.4 1185,5584.27 1185,5571.14 1185,5559.04 1185,5548.01 1185,5538.06 1185,5529.23 1185,5521.53 1185,5514.98 1185,5509.61 1185,5505.41 1185,5502.41 1185,5500.6 1185,5500 1185,5500.6 1185,5502.41 1185,5505.41 1185,5509.61 1185,5514.98 1185,5521.53 1185,5529.23 1185,5538.06 1185,5548.01 1185,5559.04 1185,5571.14 1185,5584.27 1185,5598.4 1185,5613.49 1185,5629.52 1185,5646.45 1185,5664.22 1185,5682.8 1185,5702.15 1185,5722.21 1185,5742.95 1185,5764.3 1185,5786.22 1185,5808.66 1185,5831.56 1185,5854.86 1185,5878.51 1185,5902.46 1185,5926.63 1185,5950.99 1185,5975.47 1185,6000 1185,6024.53 1185,6049.01 1185,6073.37 1185,6097.54 1185,6121.49 1185,6145.14 1185,6168.44 1185,6191.34 1185,6213.78 1185,6235.7 1185,6257.05 1185,6277.79 1185,6297.85 1185,6317.2 1185,6335.78 1185,6353.55 1185,6370.48 1185,6386.51 1185,6401.6 1185,6415.73 1185,6428.86 1185,6440.96 1185,6451.99 1185,6461.94 1185,6470.77 1185,6478.47 1185,6485.02 1185,6490.39 1185,6494.59 1185,6497.59 1185,6499.4" fill="#FFFFFF55" stroke="white" stroke-width="20" />
<polygon points="12885,5500 12885,5500.6 12885,5502.41 12885,5505.41 12885,5509.61 12885,5514.98 12885,5521.53 12885,5529.23 12885,5538.06 12885,5548.01 12885,5559.04 12885,5571.14 12885,5584.27 12885,5598.4 12885,5613.49 12885,5629.52 12885,5646.45 12885,5664.22 12885,5682.8 12885,5702.15 12885,5722.21 12885,5742.95 12885,5764.3 12885,5786.22 12885,5808.66 12885,5831.56 12885,5854.86 12885,5878.51 12885,5902.46 12885,5926.63 12885,5950.99 12885,5975.47 12885,6000 12885,6024.53 12885,6049.01 12885,6073.37 12885,6097.54 12885,6121.49 12885,6145.14 12885,6168.44 12885,6191.34 12885,6213.78 12885,6235.7 12885,6257.05 12885,6277.79 12885,6297.85 12885,6317.2 12885,6335.78 12885,6353.55 12885,6370.48 12885,6386.51 12885,6401.6 12885,6415.73 12885,6428.86 12885,6440.96 12885,6451.99 12885,6461.94 12885,6470.77 12885,6478.47 12885,6485.02 12885,6490.39 12885,6494.59 12885,6497.59 12885,6499.4 12885,6500 12885,6499.4 12885,6497.59 12885,6494.59 12885,6490.39 12885,6485.02 12885,6478.47 12885,6470.77 12885,6461.94 12885,6451.99 12885,6440.96 12885,6428.86 12885,6415.73 12885,6401.6 12885,6386.51 12885,6370.48 12885,6353.55 12885,6335.78 12885,6317.2 12885,6297.85 12885,6277.79 12885,6257.05 12885,6235.7 12885,6213.78 12885,6191.34 12885,6168.44 12885,6145.14 12885,6121.49 12885,6097.54 12885,6073.37 12885,6049.01 12885,6024.53 12885,6000 12885,5975.47 12885,5950.99 12885,5926.63 12885,5902.46 12885,5878.51 12885,5854.86 12885,5831.56 12885,5808.66 12885,5786.22 12885,5764.3 12885,5742.95 12885,5722.21 12885,5702.15 12885,5682.8 12885,5664.22 12885,5646.45 12885,5629.52 12885,5613.49 12885,5598.4 12885,5584.27 12885,5571.14 12885,5559.04 12885,5548.01 12885,5538.06 12885,5529.23 12885,5521.53 12885,5514.98 12885,5509.61 12885,5505.41 12885,5502.41 12885,5500.6" fill="#FFFFFF55" stroke="white" stroke-width="20" />
<polygon points="1100,10900 12900,10900 12900,1100 1100,1100" fill="rgba(0,200,83,0.18)" stroke="#2979ff" stroke-width="20" />
<polygon points="500,6000 13500,6000 13500,500 500,500" fill="rgba(0,200,83,0.18)" stroke="#2979ff" stroke-width="20" />
<polygon points="500,6000 500,11500 13500,11500 13500,6000" fill="rgba(0,200,83,0.18)" stroke="#2979ff" stroke-width="20" />
<polygon points="1100,10900 12900,10900 12900,1100 1100,1100" fill="none" stroke="#ff1744" stroke-width="40" />
<polygon points="500,6000 13500,6000 13500,500 500,500" fill="none" stroke="#ff1744" stroke-width="40" />
<polygon points="500,6000 500,11500 13500,11500 13500,6000" fill="none" stroke="#ff1744" stroke-width="40" />
<line x1="12900" y1="6500" x2="12900" y2="5500" stroke="#00b0ff" stroke-width="40" stroke-linecap="round" />
<line x1="1100" y1="5500" x2="1100" y2="6500" stroke="#00b0ff" stroke-width="40" stroke-linecap="round" />
</svg>