<svg xmlns="http://www.w3.org/2000/svg" width="10660.61" height="11918.9" viewBox="0 0 10660.61 11918.9">
<text x="500" y="500" fill="#222" font-size="200" font-family="monospace">Ground Floor</text>
<polygon points="819.41,819.85 1038.41,1043.85 1045.41,10879.85 821.41,11099.85 596.41,11318.85 599.41,596.85" fill="none" stroke="#2979ff" stroke-width="20" />
<polygon points="1139.69,2946.85 1139.13,2146.85 500,2147.3 500.56,2947.3" fill="#FFFFFF55" stroke="white" stroke-width="20" />
<polygon points="1141.69,6111.85 1141.13,5311.85 502,5312.3 502.56,6112.3" fill="#FFFFFF55" stroke="white" stroke-width="20" />
<polygon points="1144.69,9352.85 1144.13,8552.85 505,8553.3 505.56,9353.3" fill="#FFFFFF55" stroke="white" stroke-width="20" />
<polygon points="9837.41,4039.85 9615.41,4039.85 9618.41,1040.85 9838.41,820.85 10058.41,600.85 10058.41,4039.85" fill="none" stroke="#2979ff" stroke-width="20" />
<polygon points="10160.2,1801.49 10160.61,1401.49 9517.61,1400.85 9517.2,1800.85" fill="#FFFFFF55" stroke="white" stroke-width="20" />
<polygon points="9837.41,11099.85 9615.41,10879.85 9616.41,4239.85 9837.41,4239.85 10058.41,4239.85 10058.41,11319.85" fill="none" stroke="#2979ff" stroke-width="20" />
<polygon points="10159.34,6435.95 10159.47,5635.95 9516.47,5635.85 9516.34,6435.85" fill="#FFFFFF55" stroke="white" stroke-width="20" />
<polygon points="10158.34,9770.95 10158.47,8970.95 9515.47,8970.85 9515.34,9770.85" fill="#FFFFFF55" stroke="white" stroke-width="20" />
<polygon points="821.41,11099.85 1045.41,10879.85 9615.41,10879.85 9837.41,11099.85 10058.41,11319.85 596.41,11318.85" fill="none" stroke="#2979ff" stroke-width="20" />
<polygon points="6006.41,11418.9 6006.41,10779.85 4406.41,10779.85 4406.41,11418.9" fill="#FFFFFF55" stroke="white" stroke-width="20" />
<polygon points="2887.41,11418.9 2887.41,10779.85 2087.41,10779.85 2087.41,11418.9" fill="#FFFFFF55" stroke="white" stroke-width="20" />
<polygon points="8251.41,11418.9 8251.41,10779.85 7451.41,10779.85 7451.41,11418.9" fill="#FFFFFF55" stroke="white" stroke-width="20" />
<polygon points="6137.41,818.85 6137.41,1038.85 1038.41,1043.85 819.41,819.85 599.41,596.85 6137.41,598.85" fill="none" stroke="#2979ff" stroke-width="20" />
<polygon points="4721.41,1140.05 5121.41,1139.66 5120.78,500 4720.78,500.39" fill="#FFFFFF55" stroke="white" stroke-width="20" />
<polygon points="9838.41,820.85 9618.41,1040.85 6341.41,1041.85 6341.41,820.85 6341.41,598.85 10058.41,600.85" fill="none" stroke="#2979ff" stroke-width="20" />
<polygon points="6628.41,1141.98 7428.41,1141.73 7428.21,501.55 6628.21,501.79" fill="#FFFFFF55" stroke="white" stroke-width="20" />
<polygon points="6516.41,4241.85 6617.41,4241.85 6616.41,7789.85 6515.41,7889.85 6415.41,7989.85 6415.41,4241.85" fill="none" stroke="#2979ff" stroke-width="20" />
<polygon points="10058.41,4139.85 10058.41,4239.85 3356.41,4241.85 3356.41,4141.85 3356.41,4042.85 10058.41,4039.85" fill="none" stroke="#2979ff" stroke-width="20" />
<polygon points="5440.41,4340.98 6240.41,4340.73 6240.28,3940.68 5440.28,3940.93" fill="#FFFFFF55" stroke="white" stroke-width="20" />
<polygon points="6799.41,4340.98 7599.41,4340.73 7599.28,3940.68 6799.28,3940.93" fill="#FFFFFF55" stroke="white" stroke-width="20" />
<polygon points="3155.41,4141.85 3155.41,4241.85 1031.41,4241.85 1031.41,4141.85 1031.41,4041.85 3155.41,4042.85" fill="none" stroke="#2979ff" stroke-width="20" />
<polygon points="6515.41,7889.85 6616.41,7789.85 9614.41,7789.85 9614.41,7889.85 9614.41,7989.85 6415.41,7989.85" fill="none" stroke="#2979ff" stroke-width="20" />
<polygon points="4337.41,1042.85 4437.41,1042.85 4443.41,4039.85 4340.41,4039.85 4237.41,4039.85 4237.41,1042.85" fill="none" stroke="#2979ff" stroke-width="20" />
<polygon points="4543.21,3936.85 4541.61,3136.85 4141.61,3137.66 4143.21,3937.65" fill="#FFFFFF55" stroke="white" stroke-width="20" />
<polygon points="7815.41,1041.85 7918.41,1041.85 7915.41,4039.85 7813.41,4039.85 7711.41,4039.85 7711.41,1041.85" fill="none" stroke="#2979ff" stroke-width="20" />
<polygon points="8017.01,1974.85 8017.8,1174.85 7610.8,1174.45 7610.01,1974.45" fill="#FFFFFF55" stroke="white" stroke-width="20" />
<polygon points="8016.01,3315.85 8016.8,2515.85 7609.8,2515.45 7609.01,3315.45" fill="#FFFFFF55" stroke="white" stroke-width="20" />
<polygon points="3255.41,6701.85 3155.41,6701.85 3155.41,4042.85 3255.41,4042.85 3356.41,4042.85 3356.41,6701.85" fill="none" stroke="#2979ff" stroke-width="20" />
<polygon points="6239.41,2938.85 6136.41,2837.85 6137.41,598.85 6239.41,598.85 6341.41,598.85 6341.41,3039.85" fill="none" stroke="#2979ff" stroke-width="20" />
<polygon points="4443.41,2938.85 4443.41,2837.85 6136.41,2837.85 6239.41,2938.85 6341.41,3039.85 4443.41,3039.85" fill="none" stroke="#2979ff" stroke-width="20" />
<polygon points="5398.41,3139.85 5398.41,2737.85 4598.41,2737.85 4598.41,3139.85" fill="#FFFFFF55" stroke="white" stroke-width="20" />
<polygon points="9614.41,2239.85 9614.41,2339.85 7919.41,2339.85 7919.41,2239.85 7919.41,2140.85 9614.41,2139.85" fill="none" stroke="#2979ff" stroke-width="20" />
<polygon points="6387.41,787.85 4187.41,787.85 4187.41,792.85 787.41,792.85 787.41,4291.85 797.41,4291.85 796.41,11129.85 9865.41,11129.85 9865.41,8039.85 9866.41,8039.85 9866.41,3989.85 9865.41,3989.85 9865.41,2390.85 9868.41,2390.85 9868.41,790.85 6387.41,790.85" fill="rgba(0,200,83,0.18)" stroke="#2979ff" stroke-width="20" />
<polygon points="9615.53,10879.88 1045.55,10876.15 1050.99,1043.9 9618.27,1047.51" fill="none" stroke="#ff1744" stroke-width="40" />
<line x1="6006.64" y1="10878.31" x2="4406.36" y2="10877.62" stroke="#d84315" stroke-width="40" stroke-linecap="round" />
<line x1="2887.64" y1="10876.96" x2="2087.36" y2="10876.61" stroke="#00b0ff" stroke-width="40" stroke-linecap="round" />
<line x1="8251.64" y1="10879.29" x2="7451.36" y2="10878.94" stroke="#00b0ff" stroke-width="40" stroke-linecap="round" />
<line x1="1049.93" y1="2947.61" x2="1050.38" y2="2146.8" stroke="#00b0ff" stroke-width="40" stroke-linecap="round" />
<line x1="1048.18" y1="6112.61" x2="1048.62" y2="5311.8" stroke="#00b0ff" stroke-width="40" stroke-linecap="round" />
<line x1="1046.39" y1="9353.6" x2="1046.83" y2="8552.8" stroke="#00b0ff" stroke-width="40" stroke-linecap="round" />
<line x1="4720.55" y1="1045.45" x2="5121.45" y2="1045.61" stroke="#00b0ff" stroke-width="40" stroke-linecap="round" />
<line x1="6627.98" y1="1046.25" x2="7428.45" y2="1046.59" stroke="#d84315" stroke-width="40" stroke-linecap="round" />
<line x1="7610.4" y1="1046.66" x2="8017.86" y2="1046.83" stroke="#d84315" stroke-width="40" stroke-linecap="round" />
<line x1="9618.17" y1="1400.88" x2="9618.06" y2="1801.34" stroke="#00b0ff" stroke-width="40" stroke-linecap="round" />
<line x1="9616.99" y1="5635.79" x2="9616.77" y2="6435.88" stroke="#00b0ff" stroke-width="40" stroke-linecap="round" />
<line x1="9616.06" y1="8970.79" x2="9615.84" y2="9770.88" stroke="#00b0ff" stroke-width="40" stroke-linecap="round" />
</svg>