<svg xmlns="http://www.w3.org/2000/svg" width="10649.78" height="8695.61" viewBox="0 0 10649.78 8695.61">
<text x="500" y="500" fill="#222" font-size="200" font-family="monospace">1st Floor</text>
<polygon points="3354.6,7873.56 3354.6,7650.56 9610.6,7644.56 9830.6,7870.56 10049.6,8096.56 3354.6,8095.56" fill="none" stroke="#2979ff" stroke-width="20" />
<polygon points="7930.22,8191.23 8730.22,8190.47 8729.6,7545.18 7929.6,7545.95" fill="#FFFFFF55" stroke="white" stroke-width="20" />
<polygon points="4276.22,8194.63 5876.22,8193.09 5875.6,7547.8 4275.6,7549.33" fill="#FFFFFF55" stroke="white" stroke-width="20" />
<polygon points="822.6,7876.56 1047.6,7656.56 3157.6,7656.56 3157.6,7876.56 3157.6,8095.56 597.6,8095.56" fill="none" stroke="#2979ff" stroke-width="20" />
<polygon points="2375.6,8195.61 2375.6,7556.56 1575.6,7556.56 1575.6,8195.61" fill="#FFFFFF55" stroke="white" stroke-width="20" />
<polygon points="6207.6,820.56 6207.6,1041.56 1038.6,1045.56 818.6,822.56 598.6,598.56 6207.6,599.56" fill="none" stroke="#2979ff" stroke-width="20" />
<polygon points="4619.6,1142.72 5019.6,1142.41 5019.1,500 4619.1,500.31" fill="#FFFFFF55" stroke="white" stroke-width="20" />
<polygon points="9829.6,818.56 9608.6,1038.56 6409.6,1038.56 6409.6,818.56 6409.6,599.56 10050.6,599.56" fill="none" stroke="#2979ff" stroke-width="20" />
<polygon points="9830.6,7870.56 9610.6,7644.56 9608.6,1038.56 9829.6,818.56 10050.6,599.56 10049.6,8096.56" fill="none" stroke="#2979ff" stroke-width="20" />
<polygon points="10149.78,6401.37 10149.54,5601.37 9510.48,5601.56 9510.73,6401.56" fill="#FFFFFF55" stroke="white" stroke-width="20" />
<polygon points="10147.78,3081.37 10147.54,2281.37 9508.48,2281.56 9508.73,3081.56" fill="#FFFFFF55" stroke="white" stroke-width="20" />
<polygon points="818.6,822.56 1038.6,1045.56 1047.6,7656.56 822.6,7876.56 597.6,8095.56 598.6,598.56" fill="none" stroke="#2979ff" stroke-width="20" />
<polygon points="1141.15,2869.56 1140.05,2069.56 500,2070.44 501.09,2870.43" fill="#FFFFFF55" stroke="white" stroke-width="20" />
<polygon points="1146.15,6416.56 1145.05,5616.56 505,5617.44 506.09,6417.44" fill="#FFFFFF55" stroke="white" stroke-width="20" />
<polygon points="6907.6,2798.56 7007.6,2697.56 7012.6,7644.56 6912.6,7644.56 6812.6,7644.56 6808.6,2900.56" fill="none" stroke="#2979ff" stroke-width="20" />
<polygon points="7110.02,5170.56 7109.18,4370.56 6710.23,4370.98 6711.07,5170.98" fill="#FFFFFF55" stroke="white" stroke-width="20" />
<polygon points="7109.02,3947.56 7108.18,3147.56 6709.23,3147.98 6710.07,3947.98" fill="#FFFFFF55" stroke="white" stroke-width="20" />
<polygon points="3255.6,8095.56 3157.6,8095.56 3157.6,4234.56 3256.6,4234.56 3355.6,4234.56 3354.6,8095.56" fill="none" stroke="#2979ff" stroke-width="20" />
<polygon points="3454.47,7482.56 3454.47,6682.56 3057.6,6682.56 3057.6,7482.56" fill="#FFFFFF55" stroke="white" stroke-width="20" />
<polygon points="4308.6,4142.56 4409.6,4241.56 1034.6,4246.56 1034.6,4145.56 1034.6,4043.56 4207.6,4044.56" fill="none" stroke="#2979ff" stroke-width="20" />
<polygon points="4307.6,1044.56 4408.6,1044.56 4409.6,4241.56 4308.6,4142.56 4207.6,4044.56 4207.6,1044.56" fill="none" stroke="#2979ff" stroke-width="20" />
<polygon points="4509.73,3890.56 4509.47,3090.56 4108.47,3090.7 4108.73,3890.7" fill="#FFFFFF55" stroke="white" stroke-width="20" />
<polygon points="9606.6,4136.56 9606.6,4236.56 6999.6,4236.56 6999.6,4136.56 6999.6,4037.56 9606.6,4037.56" fill="none" stroke="#2979ff" stroke-width="20" />
<polygon points="4409.6,2800.56 4409.6,2701.56 7007.6,2697.56 6907.6,2798.56 6808.6,2900.56 4409.6,2900.56" fill="none" stroke="#2979ff" stroke-width="20" />
<polygon points="4585.27,3000.23 5385.27,2998.9 5384.6,2599.9 4584.6,2601.23" fill="#FFFFFF55" stroke="white" stroke-width="20" />
<polygon points="6308.6,599.56 6409.6,599.56 6409.6,2697.56 6308.6,2697.56 6206.6,2697.56 6207.6,599.56" fill="none" stroke="#2979ff" stroke-width="20" />
<polygon points="3406.6,7901.56 7063.6,7903.56 7063.6,7895.56 9861.6,7895.56 9861.6,3985.56 9856.6,3985.56 9858.6,788.56 6158.6,789.56 6158.6,790.56 4158.6,791.56 4158.6,795.56 788.6,795.56 787.6,4294.56 797.6,4294.56 797.6,7906.56 3406.6,7906.56" fill="rgba(0,200,83,0.18)" stroke="#2979ff" stroke-width="20" />
<polygon points="9604.98,7644.43 1047.8,7640.88 1051.27,1045.69 9608.41,1049.28" fill="none" stroke="#ff1744" stroke-width="40" />
<line x1="8730.44" y1="7644.06" x2="7929.56" y2="7643.73" stroke="#00b0ff" stroke-width="40" stroke-linecap="round" />
<line x1="5876.45" y1="7642.88" x2="4275.56" y2="7642.22" stroke="#d84315" stroke-width="40" stroke-linecap="round" />
<line x1="2375.83" y1="7641.43" x2="1575.57" y2="7641.1" stroke="#00b0ff" stroke-width="40" stroke-linecap="round" />
<line x1="3454.4" y1="7641.88" x2="3057.2" y2="7641.72" stroke="#d84315" stroke-width="40" stroke-linecap="round" />
<line x1="1050.31" y1="2870.72" x2="1050.73" y2="2069.52" stroke="#00b0ff" stroke-width="40" stroke-linecap="round" />
<line x1="1048.44" y1="6417.72" x2="1048.86" y2="5616.51" stroke="#00b0ff" stroke-width="40" stroke-linecap="round" />
<line x1="4618.87" y1="1047.19" x2="5019.64" y2="1047.36" stroke="#00b0ff" stroke-width="40" stroke-linecap="round" />
<line x1="9606.04" y1="5601.08" x2="9605.62" y2="6401.61" stroke="#00b0ff" stroke-width="40" stroke-linecap="round" />
<line x1="9607.77" y1="2281.09" x2="9607.35" y2="3081.61" stroke="#00b0ff" stroke-width="40" stroke-linecap="round" />
</svg>