<?xml version="1.0" encoding="UTF-8"?>
<svg xmlns="http://www.w3.org/2000/svg" version="1.1" viewBox="0 0 1311.28 907">
  <rect x="0" y="0" width="1311.28" height="907" fill="#f7fafc" />
  <g id="hatches">
    
  </g>
  <g id="candidates">
    <polygon points="584,200 584,472.5 200,200 200,472.5 584,200" fill="rgba(255,165,0,0.2)" stroke="#ff9800" stroke-width="8" stroke-linejoin="round" />
    <polygon points="584,200 584,472.5 1111.27,472.5 1111.27,200 584,200" fill="rgba(255,165,0,0.2)" stroke="#ff9800" stroke-width="8" stroke-linejoin="round" />
    <polygon points="584,209 584,437 1102.27,437 1102.27,209 584,209" fill="rgba(255,165,0,0.2)" stroke="#ff9800" stroke-width="8" stroke-linejoin="round" />
    <polygon points="584,200 584,472.5 727.27,200 727.27,472.5 584,200" fill="rgba(255,165,0,0.2)" stroke="#ff9800" stroke-width="8" stroke-linejoin="round" />
    <polygon points="584,273.5 584,413 736.27,273.5 736.27,413 584,273.5" fill="rgba(255,165,0,0.2)" stroke="#ff9800" stroke-width="8" stroke-linejoin="round" />
    <polygon points="584,258.55 584,347.05 1001.77,258.55 1001.77,347.05 584,258.55" fill="rgba(255,165,0,0.2)" stroke="#ff9800" stroke-width="8" stroke-linejoin="round" />
    <polygon points="584,263.05 584,347.05 1006.27,263.05 1006.27,347.05 584,263.05" fill="rgba(255,165,0,0.2)" stroke="#ff9800" stroke-width="8" stroke-linejoin="round" />
    <polygon points="584,209 584,263.05 1030.27,209 1030.27,263.05 584,209" fill="rgba(255,165,0,0.2)" stroke="#ff9800" stroke-width="8" stroke-linejoin="round" />
    <polygon points="584,239 584,372.5 860.77,239 860.77,372.5 584,239" fill="rgba(255,165,0,0.2)" stroke="#ff9800" stroke-width="8" stroke-linejoin="round" />
    <polygon points="584,239 584,372.5 856.27,239 856.27,372.5 584,239" fill="rgba(255,165,0,0.2)" stroke="#ff9800" stroke-width="8" stroke-linejoin="round" />
    <polygon points="584,209 584,269 736.27,209 736.27,269 584,209" fill="rgba(255,165,0,0.2)" stroke="#ff9800" stroke-width="8" stroke-linejoin="round" />
    <polygon points="584,509 584,566 455,566 455,509 584,509" fill="rgba(255,165,0,0.2)" stroke="#ff9800" stroke-width="8" stroke-linejoin="round" />
    <polygon points="584,509 584,704 200,509 200,704 584,509" fill="rgba(255,165,0,0.2)" stroke="#ff9800" stroke-width="8" stroke-linejoin="round" />
    <polygon points="584,575 584,695 209,575 209,695 584,575" fill="rgba(255,165,0,0.2)" stroke="#ff9800" stroke-width="8" stroke-linejoin="round" />
    <polygon points="584,528.39 584,704 1111.27,704 1111.27,528.39 584,528.39" fill="rgba(255,165,0,0.2)" stroke="#ff9800" stroke-width="8" stroke-linejoin="round" />
    <polygon points="584,599 584,698 1102.27,698 1102.27,599 584,599" fill="rgba(255,165,0,0.2)" stroke="#ff9800" stroke-width="8" stroke-linejoin="round" />
    <polygon points="584,599 584,698 982.27,698 982.27,599 584,599" fill="rgba(255,165,0,0.2)" stroke="#ff9800" stroke-width="8" stroke-linejoin="round" />
    <polygon points="584,539 584,698 973.27,698 973.27,539 584,539" fill="rgba(255,165,0,0.2)" stroke="#ff9800" stroke-width="8" stroke-linejoin="round" />
    <polygon points="584,509 584,704 727.27,509 727.27,704 584,509" fill="rgba(255,165,0,0.2)" stroke="#ff9800" stroke-width="8" stroke-linejoin="round" />
    <polygon points="584,599 584,698 736.27,599 736.27,698 584,599" fill="rgba(255,165,0,0.2)" stroke="#ff9800" stroke-width="8" stroke-linejoin="round" />
    <polygon points="584,509 584,590 736.27,509 736.27,590 584,509" fill="rgba(255,165,0,0.2)" stroke="#ff9800" stroke-width="8" stroke-linejoin="round" />
    <polygon points="584,599 584,698 856.27,599 856.27,698 584,599" fill="rgba(255,165,0,0.2)" stroke="#ff9800" stroke-width="8" stroke-linejoin="round" />
    <polygon points="584,518 584,590 856.27,518 856.27,590 584,518" fill="rgba(255,165,0,0.2)" stroke="#ff9800" stroke-width="8" stroke-linejoin="round" />
    <polygon points="584,539 584,698 865.27,539 865.27,698 584,539" fill="rgba(255,165,0,0.2)" stroke="#ff9800" stroke-width="8" stroke-linejoin="round" />
    <polygon points="584,539 584,590 982.27,539 982.27,590 584,539" fill="rgba(255,165,0,0.2)" stroke="#ff9800" stroke-width="8" stroke-linejoin="round" />
    <polygon points="584,509 584,590 1102.27,590 1102.27,509 584,509" fill="rgba(255,165,0,0.2)" stroke="#ff9800" stroke-width="8" stroke-linejoin="round" />
    <polygon points="575,209 575,305 200,209 200,305 575,209" fill="rgba(255,165,0,0.2)" stroke="#ff9800" stroke-width="8" stroke-linejoin="round" />
    <polygon points="575,209 575,305 1111.27,305 1111.27,209 575,209" fill="rgba(255,165,0,0.2)" stroke="#ff9800" stroke-width="8" stroke-linejoin="round" />
    <polygon points="575,209 575,305 1102.27,305 1102.27,209 575,209" fill="rgba(255,165,0,0.2)" stroke="#ff9800" stroke-width="8" stroke-linejoin="round" />
    <polygon points="575,209 575,305 727.27,209 727.27,305 575,209" fill="rgba(255,165,0,0.2)" stroke="#ff9800" stroke-width="8" stroke-linejoin="round" />
    <polygon points="575,258.55 575,305 1001.77,258.55 1001.77,305 575,258.55" fill="rgba(255,165,0,0.2)" stroke="#ff9800" stroke-width="8" stroke-linejoin="round" />
    <polygon points="575,263.05 575,305 1006.27,263.05 1006.27,305 575,263.05" fill="rgba(255,165,0,0.2)" stroke="#ff9800" stroke-width="8" stroke-linejoin="round" />
    <polygon points="575,209 575,263.05 1030.27,209 1030.27,263.05 575,209" fill="rgba(255,165,0,0.2)" stroke="#ff9800" stroke-width="8" stroke-linejoin="round" />
    <polygon points="575,239 575,305 860.77,239 860.77,305 575,239" fill="rgba(255,165,0,0.2)" stroke="#ff9800" stroke-width="8" stroke-linejoin="round" />
    <polygon points="575,239 575,305 856.27,239 856.27,305 575,239" fill="rgba(255,165,0,0.2)" stroke="#ff9800" stroke-width="8" stroke-linejoin="round" />
    <polygon points="575,209 575,269 736.27,209 736.27,269 575,209" fill="rgba(255,165,0,0.2)" stroke="#ff9800" stroke-width="8" stroke-linejoin="round" />
    <polygon points="575,309.5 575,468 200,309.5 200,468 575,309.5" fill="rgba(255,165,0,0.2)" stroke="#ff9800" stroke-width="8" stroke-linejoin="round" />
    <polygon points="575,309.5 575,468 1111.27,468 1111.27,309.5 575,309.5" fill="rgba(255,165,0,0.2)" stroke="#ff9800" stroke-width="8" stroke-linejoin="round" />
    <polygon points="575,309.5 575,437 1102.27,437 1102.27,309.5 575,309.5" fill="rgba(255,165,0,0.2)" stroke="#ff9800" stroke-width="8" stroke-linejoin="round" />
    <polygon points="575,309.5 575,468 727.27,309.5 727.27,468 575,309.5" fill="rgba(255,165,0,0.2)" stroke="#ff9800" stroke-width="8" stroke-linejoin="round" />
    <polygon points="575,309.5 575,413 736.27,309.5 736.27,413 575,309.5" fill="rgba(255,165,0,0.2)" stroke="#ff9800" stroke-width="8" stroke-linejoin="round" />
    <polygon points="575,309.5 575,347.05 1001.77,309.5 1001.77,347.05 575,309.5" fill="rgba(255,165,0,0.2)" stroke="#ff9800" stroke-width="8" stroke-linejoin="round" />
    <polygon points="575,309.5 575,347.05 1006.27,309.5 1006.27,347.05 575,309.5" fill="rgba(255,165,0,0.2)" stroke="#ff9800" stroke-width="8" stroke-linejoin="round" />
    <polygon points="575,309.5 575,372.5 860.77,309.5 860.77,372.5 575,309.5" fill="rgba(255,165,0,0.2)" stroke="#ff9800" stroke-width="8" stroke-linejoin="round" />
    <polygon points="575,309.5 575,372.5 856.27,309.5 856.27,372.5 575,309.5" fill="rgba(255,165,0,0.2)" stroke="#ff9800" stroke-width="8" stroke-linejoin="round" />
    <polygon points="575,575 575,695 200,575 200,695 575,575" fill="rgba(255,165,0,0.2)" stroke="#ff9800" stroke-width="8" stroke-linejoin="round" />
    <polygon points="575,575 575,695 209,575 209,695 575,575" fill="rgba(255,165,0,0.2)" stroke="#ff9800" stroke-width="8" stroke-linejoin="round" />
    <polygon points="575,575 575,695 1111.27,695 1111.27,575 575,575" fill="rgba(255,165,0,0.2)" stroke="#ff9800" stroke-width="8" stroke-linejoin="round" />
    <polygon points="575,599 575,695 1102.27,695 1102.27,599 575,599" fill="rgba(255,165,0,0.2)" stroke="#ff9800" stroke-width="8" stroke-linejoin="round" />
    <polygon points="575,599 575,695 982.27,695 982.27,599 575,599" fill="rgba(255,165,0,0.2)" stroke="#ff9800" stroke-width="8" stroke-linejoin="round" />
    <polygon points="575,575 575,695 973.27,695 973.27,575 575,575" fill="rgba(255,165,0,0.2)" stroke="#ff9800" stroke-width="8" stroke-linejoin="round" />
    <polygon points="575,575 575,695 727.27,575 727.27,695 575,575" fill="rgba(255,165,0,0.2)" stroke="#ff9800" stroke-width="8" stroke-linejoin="round" />
    <polygon points="575,599 575,695 736.27,599 736.27,695 575,599" fill="rgba(255,165,0,0.2)" stroke="#ff9800" stroke-width="8" stroke-linejoin="round" />
    <polygon points="575,599 575,695 856.27,599 856.27,695 575,599" fill="rgba(255,165,0,0.2)" stroke="#ff9800" stroke-width="8" stroke-linejoin="round" />
    <polygon points="575,575 575,695 865.27,575 865.27,695 575,575" fill="rgba(255,165,0,0.2)" stroke="#ff9800" stroke-width="8" stroke-linejoin="round" />
    <polygon points="455,509 455,566 200,509 200,566 455,509" fill="rgba(255,165,0,0.2)" stroke="#ff9800" stroke-width="8" stroke-linejoin="round" />
    <polygon points="455,528.39 455,566 1111.27,566 1111.27,528.39 455,528.39" fill="rgba(255,165,0,0.2)" stroke="#ff9800" stroke-width="8" stroke-linejoin="round" />
    <polygon points="455,539 455,566 973.27,566 973.27,539 455,539" fill="rgba(255,165,0,0.2)" stroke="#ff9800" stroke-width="8" stroke-linejoin="round" />
    <polygon points="455,509 455,566 727.27,509 727.27,566 455,509" fill="rgba(255,165,0,0.2)" stroke="#ff9800" stroke-width="8" stroke-linejoin="round" />
    <polygon points="455,509 455,566 736.27,509 736.27,566 455,509" fill="rgba(255,165,0,0.2)" stroke="#ff9800" stroke-width="8" stroke-linejoin="round" />
    <polygon points="455,518 455,566 856.27,518 856.27,566 455,518" fill="rgba(255,165,0,0.2)" stroke="#ff9800" stroke-width="8" stroke-linejoin="round" />
    <polygon points="455,539 455,566 865.27,539 865.27,566 455,539" fill="rgba(255,165,0,0.2)" stroke="#ff9800" stroke-width="8" stroke-linejoin="round" />
    <polygon points="455,539 455,566 982.27,539 982.27,566 455,539" fill="rgba(255,165,0,0.2)" stroke="#ff9800" stroke-width="8" stroke-linejoin="round" />
    <polygon points="455,509 455,566 1102.27,566 1102.27,509 455,509" fill="rgba(255,165,0,0.2)" stroke="#ff9800" stroke-width="8" stroke-linejoin="round" />
    <polygon points="200,528.39 200,200 1111.27,528.39 1111.27,200 200,528.39" fill="rgba(255,165,0,0.2)" stroke="#ff9800" stroke-width="8" stroke-linejoin="round" />
    <polygon points="200,704 200,528.39 1111.27,704 1111.27,528.39 200,704" fill="rgba(255,165,0,0.2)" stroke="#ff9800" stroke-width="8" stroke-linejoin="round" />
    <polygon points="200,437 200,209 1102.27,437 1102.27,209 200,437" fill="rgba(255,165,0,0.2)" stroke="#ff9800" stroke-width="8" stroke-linejoin="round" />
    <polygon points="200,698 200,599 1102.27,698 1102.27,599 200,698" fill="rgba(255,165,0,0.2)" stroke="#ff9800" stroke-width="8" stroke-linejoin="round" />
    <polygon points="200,698 200,599 982.27,698 982.27,599 200,698" fill="rgba(255,165,0,0.2)" stroke="#ff9800" stroke-width="8" stroke-linejoin="round" />
    <polygon points="200,698 200,539 973.27,698 973.27,539 200,698" fill="rgba(255,165,0,0.2)" stroke="#ff9800" stroke-width="8" stroke-linejoin="round" />
    <polygon points="200,704 200,200 727.27,200 727.27,704 200,704" fill="rgba(255,165,0,0.2)" stroke="#ff9800" stroke-width="8" stroke-linejoin="round" />
    <polygon points="200,698 200,599 736.27,599 736.27,698 200,698" fill="rgba(255,165,0,0.2)" stroke="#ff9800" stroke-width="8" stroke-linejoin="round" />
    <polygon points="200,590 200,417.5 736.27,417.5 736.27,590 200,590" fill="rgba(255,165,0,0.2)" stroke="#ff9800" stroke-width="8" stroke-linejoin="round" />
    <polygon points="200,413 200,273.5 736.27,273.5 736.27,413 200,413" fill="rgba(255,165,0,0.2)" stroke="#ff9800" stroke-width="8" stroke-linejoin="round" />
    <polygon points="200,698 200,599 856.27,599 856.27,698 200,698" fill="rgba(255,165,0,0.2)" stroke="#ff9800" stroke-width="8" stroke-linejoin="round" />
    <polygon points="200,590 200,518 856.27,518 856.27,590 200,590" fill="rgba(255,165,0,0.2)" stroke="#ff9800" stroke-width="8" stroke-linejoin="round" />
    <polygon points="200,698 200,539 865.27,539 865.27,698 200,698" fill="rgba(255,165,0,0.2)" stroke="#ff9800" stroke-width="8" stroke-linejoin="round" />
    <polygon points="200,590 200,539 982.27,539 982.27,590 200,590" fill="rgba(255,165,0,0.2)" stroke="#ff9800" stroke-width="8" stroke-linejoin="round" />
    <polygon points="200,347.05 200,258.55 1001.77,258.55 1001.77,347.05 200,347.05" fill="rgba(255,165,0,0.2)" stroke="#ff9800" stroke-width="8" stroke-linejoin="round" />
    <polygon points="200,347.05 200,263.05 1006.27,263.05 1006.27,347.05 200,347.05" fill="rgba(255,165,0,0.2)" stroke="#ff9800" stroke-width="8" stroke-linejoin="round" />
    <polygon points="200,263.05 200,209 1030.27,209 1030.27,263.05 200,263.05" fill="rgba(255,165,0,0.2)" stroke="#ff9800" stroke-width="8" stroke-linejoin="round" />
    <polygon points="200,372.5 200,239 860.77,239 860.77,372.5 200,372.5" fill="rgba(255,165,0,0.2)" stroke="#ff9800" stroke-width="8" stroke-linejoin="round" />
    <polygon points="200,372.5 200,239 856.27,239 856.27,372.5 200,372.5" fill="rgba(255,165,0,0.2)" stroke="#ff9800" stroke-width="8" stroke-linejoin="round" />
    <polygon points="200,269 200,209 736.27,209 736.27,269 200,269" fill="rgba(255,165,0,0.2)" stroke="#ff9800" stroke-width="8" stroke-linejoin="round" />
    <polygon points="200,590 200,482 1102.27,590 1102.27,482 200,590" fill="rgba(255,165,0,0.2)" stroke="#ff9800" stroke-width="8" stroke-linejoin="round" />
    <polygon points="209,695 209,575 1111.27,695 1111.27,575 209,695" fill="rgba(255,165,0,0.2)" stroke="#ff9800" stroke-width="8" stroke-linejoin="round" />
    <polygon points="209,695 209,599 1102.27,695 1102.27,599 209,695" fill="rgba(255,165,0,0.2)" stroke="#ff9800" stroke-width="8" stroke-linejoin="round" />
    <polygon points="209,695 209,599 982.27,695 982.27,599 209,695" fill="rgba(255,165,0,0.2)" stroke="#ff9800" stroke-width="8" stroke-linejoin="round" />
    <polygon points="209,695 209,575 973.27,695 973.27,575 209,695" fill="rgba(255,165,0,0.2)" stroke="#ff9800" stroke-width="8" stroke-linejoin="round" />
    <polygon points="209,695 209,575 727.27,575 727.27,695 209,695" fill="rgba(255,165,0,0.2)" stroke="#ff9800" stroke-width="8" stroke-linejoin="round" />
    <polygon points="209,695 209,599 736.27,599 736.27,695 209,695" fill="rgba(255,165,0,0.2)" stroke="#ff9800" stroke-width="8" stroke-linejoin="round" />
    <polygon points="209,695 209,599 856.27,599 856.27,695 209,695" fill="rgba(255,165,0,0.2)" stroke="#ff9800" stroke-width="8" stroke-linejoin="round" />
    <polygon points="209,695 209,575 865.27,575 865.27,695 209,695" fill="rgba(255,165,0,0.2)" stroke="#ff9800" stroke-width="8" stroke-linejoin="round" />
    <polygon points="982.27,200 1102.27,200 982.27,599 1102.27,599 982.27,200" fill="rgba(255,165,0,0.2)" stroke="#ff9800" stroke-width="8" stroke-linejoin="round" />
    <polygon points="736.27,200 856.27,200 736.27,599 856.27,599 736.27,200" fill="rgba(255,165,0,0.2)" stroke="#ff9800" stroke-width="8" stroke-linejoin="round" />
    <polygon points="982.27,200 1102.27,200 982.27,590 1102.27,590 982.27,200" fill="rgba(255,165,0,0.2)" stroke="#ff9800" stroke-width="8" stroke-linejoin="round" />
    <polygon points="736.27,200 856.27,200 736.27,590 856.27,590 736.27,200" fill="rgba(255,165,0,0.2)" stroke="#ff9800" stroke-width="8" stroke-linejoin="round" />
    <polygon points="907.27,200 973.27,200 973.27,548 907.27,548 907.27,200" fill="rgba(255,165,0,0.2)" stroke="#ff9800" stroke-width="8" stroke-linejoin="round" />
    <polygon points="977.77,200 1102.27,200 977.77,482 1102.27,482 977.77,200" fill="rgba(255,165,0,0.2)" stroke="#ff9800" stroke-width="8" stroke-linejoin="round" />
    <polygon points="977.77,200 1111.27,200 977.77,477.5 1111.27,477.5 977.77,200" fill="rgba(255,165,0,0.2)" stroke="#ff9800" stroke-width="8" stroke-linejoin="round" />
    <polygon points="736.27,200 860.77,200 860.77,417.5 736.27,417.5 736.27,200" fill="rgba(255,165,0,0.2)" stroke="#ff9800" stroke-width="8" stroke-linejoin="round" />
    <polygon points="736.27,200 856.27,200 856.27,413 736.27,413 736.27,200" fill="rgba(255,165,0,0.2)" stroke="#ff9800" stroke-width="8" stroke-linejoin="round" />
    <polygon points="901.27,200 1033.27,200 1033.27,347.05 901.27,347.05 901.27,200" fill="rgba(255,165,0,0.2)" stroke="#ff9800" stroke-width="8" stroke-linejoin="round" />
    <polygon points="901.27,200 1033.27,200 1033.27,351.55 901.27,351.55 901.27,200" fill="rgba(255,165,0,0.2)" stroke="#ff9800" stroke-width="8" stroke-linejoin="round" />
    <polygon points="766.27,200 856.27,200 856.27,477.5 766.27,477.5 766.27,200" fill="rgba(255,165,0,0.2)" stroke="#ff9800" stroke-width="8" stroke-linejoin="round" />
    <polygon points="766.27,200 860.77,200 860.77,482 766.27,482 766.27,200" fill="rgba(255,165,0,0.2)" stroke="#ff9800" stroke-width="8" stroke-linejoin="round" />
    <polygon points="982.27,209 1102.27,209 982.27,599 1102.27,599 982.27,209" fill="rgba(255,165,0,0.2)" stroke="#ff9800" stroke-width="8" stroke-linejoin="round" />
    <polygon points="736.27,209 856.27,209 736.27,599 856.27,599 736.27,209" fill="rgba(255,165,0,0.2)" stroke="#ff9800" stroke-width="8" stroke-linejoin="round" />
    <polygon points="982.27,209 1102.27,209 982.27,590 1102.27,590 982.27,209" fill="rgba(255,165,0,0.2)" stroke="#ff9800" stroke-width="8" stroke-linejoin="round" />
    <polygon points="736.27,209 856.27,209 736.27,590 856.27,590 736.27,209" fill="rgba(255,165,0,0.2)" stroke="#ff9800" stroke-width="8" stroke-linejoin="round" />
    <polygon points="907.27,209 973.27,209 973.27,548 907.27,548 907.27,209" fill="rgba(255,165,0,0.2)" stroke="#ff9800" stroke-width="8" stroke-linejoin="round" />
    <polygon points="977.77,209 1102.27,209 977.77,482 1102.27,482 977.77,209" fill="rgba(255,165,0,0.2)" stroke="#ff9800" stroke-width="8" stroke-linejoin="round" />
    <polygon points="977.77,209 1102.27,209 977.77,477.5 1102.27,477.5 977.77,209" fill="rgba(255,165,0,0.2)" stroke="#ff9800" stroke-width="8" stroke-linejoin="round" />
    <polygon points="736.27,209 860.77,209 860.77,417.5 736.27,417.5 736.27,209" fill="rgba(255,165,0,0.2)" stroke="#ff9800" stroke-width="8" stroke-linejoin="round" />
    <polygon points="736.27,209 856.27,209 856.27,413 736.27,413 736.27,209" fill="rgba(255,165,0,0.2)" stroke="#ff9800" stroke-width="8" stroke-linejoin="round" />
    <polygon points="901.27,209 1033.27,209 1033.27,347.05 901.27,347.05 901.27,209" fill="rgba(255,165,0,0.2)" stroke="#ff9800" stroke-width="8" stroke-linejoin="round" />
    <polygon points="901.27,209 1033.27,209 1033.27,351.55 901.27,351.55 901.27,209" fill="rgba(255,165,0,0.2)" stroke="#ff9800" stroke-width="8" stroke-linejoin="round" />
    <polygon points="766.27,209 856.27,209 856.27,477.5 766.27,477.5 766.27,209" fill="rgba(255,165,0,0.2)" stroke="#ff9800" stroke-width="8" stroke-linejoin="round" />
    <polygon points="766.27,209 860.77,209 860.77,482 766.27,482 766.27,209" fill="rgba(255,165,0,0.2)" stroke="#ff9800" stroke-width="8" stroke-linejoin="round" />
    <polygon points="1111.27,200 1111.27,528.39 727.27,200 727.27,528.39 1111.27,200" fill="rgba(255,165,0,0.2)" stroke="#ff9800" stroke-width="8" stroke-linejoin="round" />
    <polygon points="1111.27,417.5 1111.27,528.39 736.27,417.5 736.27,528.39 1111.27,417.5" fill="rgba(255,165,0,0.2)" stroke="#ff9800" stroke-width="8" stroke-linejoin="round" />
    <polygon points="1111.27,273.5 1111.27,413 736.27,273.5 736.27,413 1111.27,273.5" fill="rgba(255,165,0,0.2)" stroke="#ff9800" stroke-width="8" stroke-linejoin="round" />
    <polygon points="1111.27,258.55 1111.27,347.05 1001.77,258.55 1001.77,347.05 1111.27,258.55" fill="rgba(255,165,0,0.2)" stroke="#ff9800" stroke-width="8" stroke-linejoin="round" />
    <polygon points="1111.27,263.05 1111.27,347.05 1006.27,263.05 1006.27,347.05 1111.27,263.05" fill="rgba(255,165,0,0.2)" stroke="#ff9800" stroke-width="8" stroke-linejoin="round" />
    <polygon points="1111.27,209 1111.27,263.05 1030.27,209 1030.27,263.05 1111.27,209" fill="rgba(255,165,0,0.2)" stroke="#ff9800" stroke-width="8" stroke-linejoin="round" />
    <polygon points="1111.27,239 1111.27,372.5 860.77,239 860.77,372.5 1111.27,239" fill="rgba(255,165,0,0.2)" stroke="#ff9800" stroke-width="8" stroke-linejoin="round" />
    <polygon points="1111.27,239 1111.27,372.5 856.27,239 856.27,372.5 1111.27,239" fill="rgba(255,165,0,0.2)" stroke="#ff9800" stroke-width="8" stroke-linejoin="round" />
    <polygon points="1111.27,209 1111.27,269 736.27,209 736.27,269 1111.27,209" fill="rgba(255,165,0,0.2)" stroke="#ff9800" stroke-width="8" stroke-linejoin="round" />
    <polygon points="1111.27,599 1111.27,698 982.27,698 982.27,599 1111.27,599" fill="rgba(255,165,0,0.2)" stroke="#ff9800" stroke-width="8" stroke-linejoin="round" />
    <polygon points="1111.27,539 1111.27,698 973.27,698 973.27,539 1111.27,539" fill="rgba(255,165,0,0.2)" stroke="#ff9800" stroke-width="8" stroke-linejoin="round" />
    <polygon points="1111.27,528.39 1111.27,704 727.27,528.39 727.27,704 1111.27,528.39" fill="rgba(255,165,0,0.2)" stroke="#ff9800" stroke-width="8" stroke-linejoin="round" />
    <polygon points="1111.27,599 1111.27,698 736.27,599 736.27,698 1111.27,599" fill="rgba(255,165,0,0.2)" stroke="#ff9800" stroke-width="8" stroke-linejoin="round" />
    <polygon points="1111.27,528.39 1111.27,590 736.27,528.39 736.27,590 1111.27,528.39" fill="rgba(255,165,0,0.2)" stroke="#ff9800" stroke-width="8" stroke-linejoin="round" />
    <polygon points="1111.27,599 1111.27,698 856.27,599 856.27,698 1111.27,599" fill="rgba(255,165,0,0.2)" stroke="#ff9800" stroke-width="8" stroke-linejoin="round" />
    <polygon points="1111.27,528.39 1111.27,590 856.27,528.39 856.27,590 1111.27,528.39" fill="rgba(255,165,0,0.2)" stroke="#ff9800" stroke-width="8" stroke-linejoin="round" />
    <polygon points="1111.27,539 1111.27,698 865.27,539 865.27,698 1111.27,539" fill="rgba(255,165,0,0.2)" stroke="#ff9800" stroke-width="8" stroke-linejoin="round" />
    <polygon points="1111.27,539 1111.27,590 982.27,539 982.27,590 1111.27,539" fill="rgba(255,165,0,0.2)" stroke="#ff9800" stroke-width="8" stroke-linejoin="round" />
    <polygon points="1102.27,209 1102.27,437 727.27,209 727.27,437 1102.27,209" fill="rgba(255,165,0,0.2)" stroke="#ff9800" stroke-width="8" stroke-linejoin="round" />
    <polygon points="1102.27,273.5 1102.27,413 736.27,273.5 736.27,413 1102.27,273.5" fill="rgba(255,165,0,0.2)" stroke="#ff9800" stroke-width="8" stroke-linejoin="round" />
    <polygon points="1102.27,258.55 1102.27,347.05 1001.77,258.55 1001.77,347.05 1102.27,258.55" fill="rgba(255,165,0,0.2)" stroke="#ff9800" stroke-width="8" stroke-linejoin="round" />
    <polygon points="1102.27,263.05 1102.27,347.05 1006.27,263.05 1006.27,347.05 1102.27,263.05" fill="rgba(255,165,0,0.2)" stroke="#ff9800" stroke-width="8" stroke-linejoin="round" />
    <polygon points="1102.27,239 1102.27,372.5 860.77,239 860.77,372.5 1102.27,239" fill="rgba(255,165,0,0.2)" stroke="#ff9800" stroke-width="8" stroke-linejoin="round" />
    <polygon points="1102.27,239 1102.27,372.5 856.27,239 856.27,372.5 1102.27,239" fill="rgba(255,165,0,0.2)" stroke="#ff9800" stroke-width="8" stroke-linejoin="round" />
    <polygon points="1102.27,209 1102.27,269 736.27,209 736.27,269 1102.27,209" fill="rgba(255,165,0,0.2)" stroke="#ff9800" stroke-width="8" stroke-linejoin="round" />
    <polygon points="1102.27,599 1102.27,698 982.27,698 982.27,599 1102.27,599" fill="rgba(255,165,0,0.2)" stroke="#ff9800" stroke-width="8" stroke-linejoin="round" />
    <polygon points="1102.27,599 1102.27,698 973.27,698 973.27,599 1102.27,599" fill="rgba(255,165,0,0.2)" stroke="#ff9800" stroke-width="8" stroke-linejoin="round" />
    <polygon points="1102.27,599 1102.27,698 727.27,599 727.27,698 1102.27,599" fill="rgba(255,165,0,0.2)" stroke="#ff9800" stroke-width="8" stroke-linejoin="round" />
    <polygon points="1102.27,599 1102.27,698 736.27,599 736.27,698 1102.27,599" fill="rgba(255,165,0,0.2)" stroke="#ff9800" stroke-width="8" stroke-linejoin="round" />
    <polygon points="1102.27,599 1102.27,698 856.27,599 856.27,698 1102.27,599" fill="rgba(255,165,0,0.2)" stroke="#ff9800" stroke-width="8" stroke-linejoin="round" />
    <polygon points="1102.27,599 1102.27,698 865.27,599 865.27,698 1102.27,599" fill="rgba(255,165,0,0.2)" stroke="#ff9800" stroke-width="8" stroke-linejoin="round" />
    <polygon points="982.27,599 982.27,698 727.27,599 727.27,698 982.27,599" fill="rgba(255,165,0,0.2)" stroke="#ff9800" stroke-width="8" stroke-linejoin="round" />
    <polygon points="982.27,599 982.27,698 736.27,599 736.27,698 982.27,599" fill="rgba(255,165,0,0.2)" stroke="#ff9800" stroke-width="8" stroke-linejoin="round" />
    <polygon points="982.27,599 982.27,698 856.27,599 856.27,698 982.27,599" fill="rgba(255,165,0,0.2)" stroke="#ff9800" stroke-width="8" stroke-linejoin="round" />
    <polygon points="982.27,599 982.27,698 865.27,599 865.27,698 982.27,599" fill="rgba(255,165,0,0.2)" stroke="#ff9800" stroke-width="8" stroke-linejoin="round" />
    <polygon points="973.27,539 973.27,698 727.27,539 727.27,698 973.27,539" fill="rgba(255,165,0,0.2)" stroke="#ff9800" stroke-width="8" stroke-linejoin="round" />
    <polygon points="973.27,599 973.27,698 736.27,599 736.27,698 973.27,599" fill="rgba(255,165,0,0.2)" stroke="#ff9800" stroke-width="8" stroke-linejoin="round" />
    <polygon points="973.27,599 973.27,698 856.27,599 856.27,698 973.27,599" fill="rgba(255,165,0,0.2)" stroke="#ff9800" stroke-width="8" stroke-linejoin="round" />
    <polygon points="973.27,539 973.27,590 856.27,539 856.27,590 973.27,539" fill="rgba(255,165,0,0.2)" stroke="#ff9800" stroke-width="8" stroke-linejoin="round" />
    <polygon points="973.27,539 973.27,698 865.27,539 865.27,698 973.27,539" fill="rgba(255,165,0,0.2)" stroke="#ff9800" stroke-width="8" stroke-linejoin="round" />
    <polygon points="973.27,539 973.27,590 1102.27,590 1102.27,539 973.27,539" fill="rgba(255,165,0,0.2)" stroke="#ff9800" stroke-width="8" stroke-linejoin="round" />
    <polygon points="1102.27,599 982.27,599 982.27,482 1102.27,482 1102.27,599" fill="rgba(255,165,0,0.2)" stroke="#ff9800" stroke-width="8" stroke-linejoin="round" />
    <polygon points="1102.27,599 982.27,599 982.27,477.5 1102.27,477.5 1102.27,599" fill="rgba(255,165,0,0.2)" stroke="#ff9800" stroke-width="8" stroke-linejoin="round" />
    <polygon points="1033.27,599 982.27,599 1033.27,347.05 982.27,347.05 1033.27,599" fill="rgba(255,165,0,0.2)" stroke="#ff9800" stroke-width="8" stroke-linejoin="round" />
    <polygon points="1033.27,599 982.27,599 1033.27,351.55 982.27,351.55 1033.27,599" fill="rgba(255,165,0,0.2)" stroke="#ff9800" stroke-width="8" stroke-linejoin="round" />
    <polygon points="1102.27,599 1030.27,599 1030.27,246.55 1102.27,246.55 1102.27,599" fill="rgba(255,165,0,0.2)" stroke="#ff9800" stroke-width="8" stroke-linejoin="round" />
    <polygon points="856.27,599 736.27,599 856.27,417.5 736.27,417.5 856.27,599" fill="rgba(255,165,0,0.2)" stroke="#ff9800" stroke-width="8" stroke-linejoin="round" />
    <polygon points="856.27,599 736.27,599 856.27,413 736.27,413 856.27,599" fill="rgba(255,165,0,0.2)" stroke="#ff9800" stroke-width="8" stroke-linejoin="round" />
    <polygon points="826.27,599 736.27,599 826.27,269 736.27,269 826.27,599" fill="rgba(255,165,0,0.2)" stroke="#ff9800" stroke-width="8" stroke-linejoin="round" />
    <polygon points="826.27,599 736.27,599 826.27,273.5 736.27,273.5 826.27,599" fill="rgba(255,165,0,0.2)" stroke="#ff9800" stroke-width="8" stroke-linejoin="round" />
    <polygon points="856.27,599 766.27,599 856.27,477.5 766.27,477.5 856.27,599" fill="rgba(255,165,0,0.2)" stroke="#ff9800" stroke-width="8" stroke-linejoin="round" />
    <polygon points="856.27,599 766.27,599 856.27,482 766.27,482 856.27,599" fill="rgba(255,165,0,0.2)" stroke="#ff9800" stroke-width="8" stroke-linejoin="round" />
    <polygon points="1102.27,590 982.27,590 982.27,482 1102.27,482 1102.27,590" fill="rgba(255,165,0,0.2)" stroke="#ff9800" stroke-width="8" stroke-linejoin="round" />
    <polygon points="1102.27,590 982.27,590 982.27,477.5 1102.27,477.5 1102.27,590" fill="rgba(255,165,0,0.2)" stroke="#ff9800" stroke-width="8" stroke-linejoin="round" />
    <polygon points="1033.27,590 982.27,590 1033.27,347.05 982.27,347.05 1033.27,590" fill="rgba(255,165,0,0.2)" stroke="#ff9800" stroke-width="8" stroke-linejoin="round" />
    <polygon points="1033.27,590 982.27,590 1033.27,351.55 982.27,351.55 1033.27,590" fill="rgba(255,165,0,0.2)" stroke="#ff9800" stroke-width="8" stroke-linejoin="round" />
    <polygon points="1102.27,590 1030.27,590 1030.27,246.55 1102.27,246.55 1102.27,590" fill="rgba(255,165,0,0.2)" stroke="#ff9800" stroke-width="8" stroke-linejoin="round" />
    <polygon points="856.27,590 736.27,590 856.27,417.5 736.27,417.5 856.27,590" fill="rgba(255,165,0,0.2)" stroke="#ff9800" stroke-width="8" stroke-linejoin="round" />
    <polygon points="856.27,590 736.27,590 856.27,413 736.27,413 856.27,590" fill="rgba(255,165,0,0.2)" stroke="#ff9800" stroke-width="8" stroke-linejoin="round" />
    <polygon points="826.27,590 736.27,590 826.27,269 736.27,269 826.27,590" fill="rgba(255,165,0,0.2)" stroke="#ff9800" stroke-width="8" stroke-linejoin="round" />
    <polygon points="826.27,590 736.27,590 826.27,273.5 736.27,273.5 826.27,590" fill="rgba(255,165,0,0.2)" stroke="#ff9800" stroke-width="8" stroke-linejoin="round" />
    <polygon points="856.27,590 766.27,590 856.27,477.5 766.27,477.5 856.27,590" fill="rgba(255,165,0,0.2)" stroke="#ff9800" stroke-width="8" stroke-linejoin="round" />
    <polygon points="856.27,590 766.27,590 856.27,482 766.27,482 856.27,590" fill="rgba(255,165,0,0.2)" stroke="#ff9800" stroke-width="8" stroke-linejoin="round" />
    <polygon points="727.27,698 727.27,599 856.27,599 856.27,698 727.27,698" fill="rgba(255,165,0,0.2)" stroke="#ff9800" stroke-width="8" stroke-linejoin="round" />
    <polygon points="727.27,590 727.27,518 856.27,518 856.27,590 727.27,590" fill="rgba(255,165,0,0.2)" stroke="#ff9800" stroke-width="8" stroke-linejoin="round" />
    <polygon points="727.27,698 727.27,539 865.27,539 865.27,698 727.27,698" fill="rgba(255,165,0,0.2)" stroke="#ff9800" stroke-width="8" stroke-linejoin="round" />
    <polygon points="727.27,590 727.27,539 982.27,539 982.27,590 727.27,590" fill="rgba(255,165,0,0.2)" stroke="#ff9800" stroke-width="8" stroke-linejoin="round" />
    <polygon points="727.27,347.05 727.27,258.55 1001.77,258.55 1001.77,347.05 727.27,347.05" fill="rgba(255,165,0,0.2)" stroke="#ff9800" stroke-width="8" stroke-linejoin="round" />
    <polygon points="727.27,347.05 727.27,263.05 1006.27,263.05 1006.27,347.05 727.27,347.05" fill="rgba(255,165,0,0.2)" stroke="#ff9800" stroke-width="8" stroke-linejoin="round" />
    <polygon points="727.27,263.05 727.27,209 1030.27,209 1030.27,263.05 727.27,263.05" fill="rgba(255,165,0,0.2)" stroke="#ff9800" stroke-width="8" stroke-linejoin="round" />
    <polygon points="727.27,372.5 727.27,239 860.77,239 860.77,372.5 727.27,372.5" fill="rgba(255,165,0,0.2)" stroke="#ff9800" stroke-width="8" stroke-linejoin="round" />
    <polygon points="727.27,372.5 727.27,239 856.27,239 856.27,372.5 727.27,372.5" fill="rgba(255,165,0,0.2)" stroke="#ff9800" stroke-width="8" stroke-linejoin="round" />
    <polygon points="727.27,590 727.27,482 1102.27,590 1102.27,482 727.27,590" fill="rgba(255,165,0,0.2)" stroke="#ff9800" stroke-width="8" stroke-linejoin="round" />
    <polygon points="736.27,698 736.27,599 856.27,599 856.27,698 736.27,698" fill="rgba(255,165,0,0.2)" stroke="#ff9800" stroke-width="8" stroke-linejoin="round" />
    <polygon points="736.27,698 736.27,599 865.27,599 865.27,698 736.27,698" fill="rgba(255,165,0,0.2)" stroke="#ff9800" stroke-width="8" stroke-linejoin="round" />
    <polygon points="736.27,590 736.27,518 856.27,518 856.27,590 736.27,590" fill="rgba(255,165,0,0.2)" stroke="#ff9800" stroke-width="8" stroke-linejoin="round" />
    <polygon points="736.27,590 736.27,539 982.27,539 982.27,590 736.27,590" fill="rgba(255,165,0,0.2)" stroke="#ff9800" stroke-width="8" stroke-linejoin="round" />
    <polygon points="736.27,590 736.27,482 1102.27,590 1102.27,482 736.27,590" fill="rgba(255,165,0,0.2)" stroke="#ff9800" stroke-width="8" stroke-linejoin="round" />
    <polygon points="736.27,347.05 736.27,273.5 1001.77,273.5 1001.77,347.05 736.27,347.05" fill="rgba(255,165,0,0.2)" stroke="#ff9800" stroke-width="8" stroke-linejoin="round" />
    <polygon points="736.27,347.05 736.27,273.5 1006.27,273.5 1006.27,347.05 736.27,347.05" fill="rgba(255,165,0,0.2)" stroke="#ff9800" stroke-width="8" stroke-linejoin="round" />
    <polygon points="736.27,372.5 736.27,273.5 860.77,273.5 860.77,372.5 736.27,372.5" fill="rgba(255,165,0,0.2)" stroke="#ff9800" stroke-width="8" stroke-linejoin="round" />
    <polygon points="736.27,372.5 736.27,273.5 856.27,273.5 856.27,372.5 736.27,372.5" fill="rgba(255,165,0,0.2)" stroke="#ff9800" stroke-width="8" stroke-linejoin="round" />
    <polygon points="856.27,590 856.27,539 982.27,539 982.27,590 856.27,590" fill="rgba(255,165,0,0.2)" stroke="#ff9800" stroke-width="8" stroke-linejoin="round" />
    <polygon points="856.27,590 856.27,518 1102.27,590 1102.27,518 856.27,590" fill="rgba(255,165,0,0.2)" stroke="#ff9800" stroke-width="8" stroke-linejoin="round" />
    <polygon points="865.27,590 865.27,539 982.27,539 982.27,590 865.27,590" fill="rgba(255,165,0,0.2)" stroke="#ff9800" stroke-width="8" stroke-linejoin="round" />
    <polygon points="865.27,590 865.27,539 1102.27,590 1102.27,539 865.27,590" fill="rgba(255,165,0,0.2)" stroke="#ff9800" stroke-width="8" stroke-linejoin="round" />
    <polygon points="907.27,548 973.27,548 973.27,347.05 907.27,347.05 907.27,548" fill="rgba(255,165,0,0.2)" stroke="#ff9800" stroke-width="8" stroke-linejoin="round" />
    <polygon points="907.27,548 973.27,548 973.27,351.55 907.27,351.55 907.27,548" fill="rgba(255,165,0,0.2)" stroke="#ff9800" stroke-width="8" stroke-linejoin="round" />
    <polygon points="1033.27,482 977.77,482 1033.27,347.05 977.77,347.05 1033.27,482" fill="rgba(255,165,0,0.2)" stroke="#ff9800" stroke-width="8" stroke-linejoin="round" />
    <polygon points="1033.27,482 977.77,482 1033.27,351.55 977.77,351.55 1033.27,482" fill="rgba(255,165,0,0.2)" stroke="#ff9800" stroke-width="8" stroke-linejoin="round" />
    <polygon points="1102.27,482 1030.27,482 1030.27,246.55 1102.27,246.55 1102.27,482" fill="rgba(255,165,0,0.2)" stroke="#ff9800" stroke-width="8" stroke-linejoin="round" />
    <polygon points="1033.27,477.5 977.77,477.5 1033.27,347.05 977.77,347.05 1033.27,477.5" fill="rgba(255,165,0,0.2)" stroke="#ff9800" stroke-width="8" stroke-linejoin="round" />
    <polygon points="1033.27,477.5 977.77,477.5 1033.27,351.55 977.77,351.55 1033.27,477.5" fill="rgba(255,165,0,0.2)" stroke="#ff9800" stroke-width="8" stroke-linejoin="round" />
    <polygon points="1102.27,477.5 1030.27,477.5 1030.27,246.55 1102.27,246.55 1102.27,477.5" fill="rgba(255,165,0,0.2)" stroke="#ff9800" stroke-width="8" stroke-linejoin="round" />
    <polygon points="982.27,590 982.27,539 1102.27,590 1102.27,539 982.27,590" fill="rgba(255,165,0,0.2)" stroke="#ff9800" stroke-width="8" stroke-linejoin="round" />
    <polygon points="736.27,417.5 826.27,417.5 826.27,269 736.27,269 736.27,417.5" fill="rgba(255,165,0,0.2)" stroke="#ff9800" stroke-width="8" stroke-linejoin="round" />
    <polygon points="736.27,417.5 826.27,417.5 826.27,273.5 736.27,273.5 736.27,417.5" fill="rgba(255,165,0,0.2)" stroke="#ff9800" stroke-width="8" stroke-linejoin="round" />
    <polygon points="736.27,413 826.27,413 826.27,269 736.27,269 736.27,413" fill="rgba(255,165,0,0.2)" stroke="#ff9800" stroke-width="8" stroke-linejoin="round" />
    <polygon points="736.27,413 826.27,413 826.27,273.5 736.27,273.5 736.27,413" fill="rgba(255,165,0,0.2)" stroke="#ff9800" stroke-width="8" stroke-linejoin="round" />
    <polygon points="766.27,269 826.27,269 826.27,477.5 766.27,477.5 766.27,269" fill="rgba(255,165,0,0.2)" stroke="#ff9800" stroke-width="8" stroke-linejoin="round" />
    <polygon points="766.27,269 826.27,269 826.27,482 766.27,482 766.27,269" fill="rgba(255,165,0,0.2)" stroke="#ff9800" stroke-width="8" stroke-linejoin="round" />
    <polygon points="766.27,273.5 826.27,273.5 826.27,477.5 766.27,477.5 766.27,273.5" fill="rgba(255,165,0,0.2)" stroke="#ff9800" stroke-width="8" stroke-linejoin="round" />
    <polygon points="766.27,273.5 826.27,273.5 826.27,482 766.27,482 766.27,273.5" fill="rgba(255,165,0,0.2)" stroke="#ff9800" stroke-width="8" stroke-linejoin="round" />
    <polygon points="1001.77,347.05 1001.77,258.55 860.77,258.55 860.77,347.05 1001.77,347.05" fill="rgba(255,165,0,0.2)" stroke="#ff9800" stroke-width="8" stroke-linejoin="round" />
    <polygon points="1001.77,347.05 1001.77,258.55 856.27,258.55 856.27,347.05 1001.77,347.05" fill="rgba(255,165,0,0.2)" stroke="#ff9800" stroke-width="8" stroke-linejoin="round" />
    <polygon points="1006.27,347.05 1006.27,263.05 860.77,263.05 860.77,347.05 1006.27,347.05" fill="rgba(255,165,0,0.2)" stroke="#ff9800" stroke-width="8" stroke-linejoin="round" />
    <polygon points="1006.27,347.05 1006.27,263.05 856.27,263.05 856.27,347.05 1006.27,347.05" fill="rgba(255,165,0,0.2)" stroke="#ff9800" stroke-width="8" stroke-linejoin="round" />
    <polygon points="1030.27,263.05 1030.27,239 860.77,239 860.77,263.05 1030.27,263.05" fill="rgba(255,165,0,0.2)" stroke="#ff9800" stroke-width="8" stroke-linejoin="round" />
    <polygon points="1030.27,263.05 1030.27,239 856.27,239 856.27,263.05 1030.27,263.05" fill="rgba(255,165,0,0.2)" stroke="#ff9800" stroke-width="8" stroke-linejoin="round" />
    <polygon points="1030.27,263.05 1030.27,209 736.27,209 736.27,263.05 1030.27,263.05" fill="rgba(255,165,0,0.2)" stroke="#ff9800" stroke-width="8" stroke-linejoin="round" />
    <polygon points="860.77,269 860.77,239 736.27,239 736.27,269 860.77,269" fill="rgba(255,165,0,0.2)" stroke="#ff9800" stroke-width="8" stroke-linejoin="round" />
    <polygon points="856.27,269 856.27,239 736.27,239 736.27,269 856.27,269" fill="rgba(255,165,0,0.2)" stroke="#ff9800" stroke-width="8" stroke-linejoin="round" />
  </g>
  <g id="walls">
    <line x1="200" y1="200" x2="584" y2="200" stroke="#4a5568" stroke-width="6" stroke-linecap="round" />
    <line x1="209" y1="209" x2="575" y2="209" stroke="#4a5568" stroke-width="6" stroke-linecap="round" />
    <line x1="584" y1="200" x2="584" y2="472.5" stroke="#4a5568" stroke-width="6" stroke-linecap="round" />
    <line x1="584" y1="509" x2="584" y2="704" stroke="#4a5568" stroke-width="6" stroke-linecap="round" />
    <line x1="575" y1="209" x2="575" y2="305" stroke="#4a5568" stroke-width="6" stroke-linecap="round" />
    <line x1="575" y1="309.5" x2="575" y2="468" stroke="#4a5568" stroke-width="6" stroke-linecap="round" />
    <line x1="575" y1="575" x2="575" y2="695" stroke="#4a5568" stroke-width="6" stroke-linecap="round" />
    <line x1="455" y1="509" x2="455" y2="566" stroke="#4a5568" stroke-width="6" stroke-linecap="round" />
    <line x1="200" y1="704" x2="200" y2="200" stroke="#4a5568" stroke-width="6" stroke-linecap="round" />
    <line x1="209" y1="695" x2="209" y2="575" stroke="#4a5568" stroke-width="6" stroke-linecap="round" />
    <line x1="314" y1="695" x2="344" y2="695" stroke="#4a5568" stroke-width="6" stroke-linecap="round" />
    <line x1="344" y1="707" x2="314" y2="707" stroke="#4a5568" stroke-width="6" stroke-linecap="round" />
    <line x1="200" y1="695" x2="230" y2="695" stroke="#4a5568" stroke-width="6" stroke-linecap="round" />
    <line x1="230" y1="707" x2="200" y2="707" stroke="#4a5568" stroke-width="6" stroke-linecap="round" />
    <line x1="470" y1="695" x2="440" y2="695" stroke="#4a5568" stroke-width="6" stroke-linecap="round" />
    <line x1="440" y1="707" x2="470" y2="707" stroke="#4a5568" stroke-width="6" stroke-linecap="round" />
    <line x1="584" y1="695" x2="554" y2="695" stroke="#4a5568" stroke-width="6" stroke-linecap="round" />
    <line x1="554" y1="707" x2="584" y2="707" stroke="#4a5568" stroke-width="6" stroke-linecap="round" />
    <line x1="329" y1="515" x2="352.5" y2="515" stroke="#4a5568" stroke-width="6" stroke-linecap="round" />
    <line x1="727.27" y1="200" x2="1111.27" y2="200" stroke="#4a5568" stroke-width="6" stroke-linecap="round" />
    <line x1="736.27" y1="209" x2="1102.27" y2="209" stroke="#4a5568" stroke-width="6" stroke-linecap="round" />
    <line x1="1111.27" y1="200" x2="1111.27" y2="528.39" stroke="#4a5568" stroke-width="6" stroke-linecap="round" />
    <line x1="1111.27" y1="528.39" x2="1111.27" y2="704" stroke="#4a5568" stroke-width="6" stroke-linecap="round" />
    <line x1="1102.27" y1="209" x2="1102.27" y2="437" stroke="#4a5568" stroke-width="6" stroke-linecap="round" />
    <line x1="1102.27" y1="599" x2="1102.27" y2="698" stroke="#4a5568" stroke-width="6" stroke-linecap="round" />
    <line x1="982.27" y1="599" x2="982.27" y2="698" stroke="#4a5568" stroke-width="6" stroke-linecap="round" />
    <line x1="973.27" y1="539" x2="973.27" y2="698" stroke="#4a5568" stroke-width="6" stroke-linecap="round" />
    <line x1="1102.27" y1="599" x2="982.27" y2="599" stroke="#4a5568" stroke-width="6" stroke-linecap="round" />
    <line x1="856.27" y1="599" x2="736.27" y2="599" stroke="#4a5568" stroke-width="6" stroke-linecap="round" />
    <line x1="1102.27" y1="590" x2="982.27" y2="590" stroke="#4a5568" stroke-width="6" stroke-linecap="round" />
    <line x1="856.27" y1="590" x2="736.27" y2="590" stroke="#4a5568" stroke-width="6" stroke-linecap="round" />
    <line x1="727.27" y1="704" x2="727.27" y2="200" stroke="#4a5568" stroke-width="6" stroke-linecap="round" />
    <line x1="736.27" y1="698" x2="736.27" y2="599" stroke="#4a5568" stroke-width="6" stroke-linecap="round" />
    <line x1="736.27" y1="590" x2="736.27" y2="417.5" stroke="#4a5568" stroke-width="6" stroke-linecap="round" />
    <line x1="736.27" y1="413" x2="736.27" y2="273.5" stroke="#4a5568" stroke-width="6" stroke-linecap="round" />
    <line x1="856.27" y1="698" x2="856.27" y2="599" stroke="#4a5568" stroke-width="6" stroke-linecap="round" />
    <line x1="856.27" y1="590" x2="856.27" y2="518" stroke="#4a5568" stroke-width="6" stroke-linecap="round" />
    <line x1="865.27" y1="698" x2="865.27" y2="539" stroke="#4a5568" stroke-width="6" stroke-linecap="round" />
    <line x1="841.27" y1="698" x2="871.27" y2="698" stroke="#4a5568" stroke-width="6" stroke-linecap="round" />
    <line x1="871.27" y1="707" x2="841.27" y2="707" stroke="#4a5568" stroke-width="6" stroke-linecap="round" />
    <line x1="727.27" y1="698" x2="757.27" y2="698" stroke="#4a5568" stroke-width="6" stroke-linecap="round" />
    <line x1="757.27" y1="707" x2="727.27" y2="707" stroke="#4a5568" stroke-width="6" stroke-linecap="round" />
    <line x1="997.27" y1="698" x2="967.27" y2="698" stroke="#4a5568" stroke-width="6" stroke-linecap="round" />
    <line x1="967.27" y1="707" x2="997.27" y2="707" stroke="#4a5568" stroke-width="6" stroke-linecap="round" />
    <line x1="1111.27" y1="698" x2="1081.27" y2="698" stroke="#4a5568" stroke-width="6" stroke-linecap="round" />
    <line x1="1081.27" y1="707" x2="1111.27" y2="707" stroke="#4a5568" stroke-width="6" stroke-linecap="round" />
    <line x1="907.27" y1="548" x2="973.27" y2="548" stroke="#4a5568" stroke-width="6" stroke-linecap="round" />
    <line x1="1111.27" y1="441.5" x2="1082.27" y2="441.5" stroke="#4a5568" stroke-width="6" stroke-linecap="round" />
    <line x1="1111.27" y1="437" x2="1082.27" y2="437" stroke="#4a5568" stroke-width="6" stroke-linecap="round" />
    <line x1="1102.27" y1="482" x2="977.77" y2="482" stroke="#4a5568" stroke-width="6" stroke-linecap="round" />
    <line x1="1111.27" y1="477.5" x2="977.77" y2="477.5" stroke="#4a5568" stroke-width="6" stroke-linecap="round" />
    <line x1="977.77" y1="539" x2="977.77" y2="518" stroke="#4a5568" stroke-width="6" stroke-linecap="round" />
    <line x1="982.27" y1="590" x2="982.27" y2="539" stroke="#4a5568" stroke-width="6" stroke-linecap="round" />
    <line x1="982.27" y1="539" x2="982.27" y2="518" stroke="#4a5568" stroke-width="6" stroke-linecap="round" />
    <line x1="860.77" y1="539" x2="860.77" y2="518" stroke="#4a5568" stroke-width="6" stroke-linecap="round" />
    <line x1="736.27" y1="417.5" x2="860.77" y2="417.5" stroke="#4a5568" stroke-width="6" stroke-linecap="round" />
    <line x1="736.27" y1="413" x2="856.27" y2="413" stroke="#4a5568" stroke-width="6" stroke-linecap="round" />
    <line x1="736.27" y1="269" x2="826.27" y2="269" stroke="#4a5568" stroke-width="6" stroke-linecap="round" />
    <line x1="736.27" y1="273.5" x2="826.27" y2="273.5" stroke="#4a5568" stroke-width="6" stroke-linecap="round" />
    <line x1="1001.77" y1="347.05" x2="1001.77" y2="258.55" stroke="#4a5568" stroke-width="6" stroke-linecap="round" />
    <line x1="1006.27" y1="347.05" x2="1006.27" y2="263.05" stroke="#4a5568" stroke-width="6" stroke-linecap="round" />
    <line x1="1006.27" y1="263.05" x2="1030.27" y2="263.05" stroke="#4a5568" stroke-width="6" stroke-linecap="round" />
    <line x1="1001.77" y1="258.55" x2="1030.27" y2="258.55" stroke="#4a5568" stroke-width="6" stroke-linecap="round" />
    <line x1="1030.27" y1="263.05" x2="1030.27" y2="209" stroke="#4a5568" stroke-width="6" stroke-linecap="round" />
    <line x1="1025.77" y1="258.55" x2="1025.77" y2="209" stroke="#4a5568" stroke-width="6" stroke-linecap="round" />
    <line x1="1030.27" y1="246.55" x2="1102.27" y2="209" stroke="#4a5568" stroke-width="6" stroke-linecap="round" />
    <line x1="1030.27" y1="209" x2="1102.27" y2="246.55" stroke="#4a5568" stroke-width="6" stroke-linecap="round" />
    <line x1="901.27" y1="347.05" x2="1033.27" y2="347.05" stroke="#4a5568" stroke-width="6" stroke-linecap="round" />
    <line x1="901.27" y1="351.55" x2="1033.27" y2="351.55" stroke="#4a5568" stroke-width="6" stroke-linecap="round" />
    <line x1="860.77" y1="372.5" x2="860.77" y2="239" stroke="#4a5568" stroke-width="6" stroke-linecap="round" />
    <line x1="856.27" y1="372.5" x2="856.27" y2="239" stroke="#4a5568" stroke-width="6" stroke-linecap="round" />
    <line x1="856.27" y1="477.5" x2="856.27" y2="447.5" stroke="#4a5568" stroke-width="6" stroke-linecap="round" />
    <line x1="860.77" y1="482" x2="860.77" y2="447.5" stroke="#4a5568" stroke-width="6" stroke-linecap="round" />
    <line x1="860.77" y1="239" x2="860.77" y2="209" stroke="#4a5568" stroke-width="6" stroke-linecap="round" />
    <line x1="1006.27" y1="590" x2="982.27" y2="590" stroke="#4a5568" stroke-width="6" stroke-linecap="round" />
    <line x1="766.27" y1="477.5" x2="856.27" y2="477.5" stroke="#4a5568" stroke-width="6" stroke-linecap="round" />
    <line x1="766.27" y1="482" x2="860.77" y2="482" stroke="#4a5568" stroke-width="6" stroke-linecap="round" />
    <line x1="1066.27" y1="258.55" x2="1102.27" y2="258.55" stroke="#4a5568" stroke-width="6" stroke-linecap="round" />
    <line x1="1066.27" y1="263.05" x2="1102.27" y2="263.05" stroke="#4a5568" stroke-width="6" stroke-linecap="round" />
    <line x1="1102.27" y1="246.55" x2="1030.27" y2="246.55" stroke="#4a5568" stroke-width="6" stroke-linecap="round" />
    <line x1="1075.27" y1="347.05" x2="1102.27" y2="347.05" stroke="#4a5568" stroke-width="6" stroke-linecap="round" />
    <line x1="1075.27" y1="351.55" x2="1102.27" y2="351.55" stroke="#4a5568" stroke-width="6" stroke-linecap="round" />
    <line x1="856.27" y1="590" x2="832.27" y2="590" stroke="#4a5568" stroke-width="6" stroke-linecap="round" />
    <line x1="736.27" y1="269" x2="736.27" y2="209" stroke="#4a5568" stroke-width="6" stroke-linecap="round" />
    <line x1="1102.27" y1="482" x2="1102.27" y2="590" stroke="#4a5568" stroke-width="6" stroke-linecap="round" />
    <line x1="1102.27" y1="351.55" x2="1075.27" y2="351.55" stroke="#4a5568" stroke-width="6" stroke-linecap="round" />
    <line x1="1102.27" y1="369.55" x2="1102.27" y2="351.55" stroke="#4a5568" stroke-width="6" stroke-linecap="round" />
  </g>
</svg>
